<?xml version="1.0" encoding="UTF-8" standalone="no"?>
<!-- Created with Inkscape (http://www.inkscape.org/) -->

<svg
   version="1.1"
   id="svg1"
   width="226.34746"
   height="227.57431"
   viewBox="0 0 226.34746 227.57431"
   sodipodi:docname="Karotte4.svg"
   inkscape:version="1.4 (86a8ad7, 2024-10-11)"
   xmlns:inkscape="http://www.inkscape.org/namespaces/inkscape"
   xmlns:sodipodi="http://sodipodi.sourceforge.net/DTD/sodipodi-0.dtd"
   xmlns="http://www.w3.org/2000/svg"
   xmlns:svg="http://www.w3.org/2000/svg">
  <defs
     id="defs1" />
  <sodipodi:namedview
     id="namedview1"
     pagecolor="#ffffff"
     bordercolor="#000000"
     borderopacity="0.25"
     inkscape:showpageshadow="2"
     inkscape:pageopacity="0.0"
     inkscape:pagecheckerboard="0"
     inkscape:deskcolor="#d1d1d1"
     inkscape:zoom="2.4607316"
     inkscape:cx="110.53623"
     inkscape:cy="154.62881"
     inkscape:window-width="1920"
     inkscape:window-height="1001"
     inkscape:window-x="-9"
     inkscape:window-y="-9"
     inkscape:window-maximized="1"
     inkscape:current-layer="g1" />
  <g
     inkscape:groupmode="layer"
     inkscape:label="Image"
     id="g1"
     transform="translate(-0.72805133,2.12481)">
    <path
       id="path1"
       style="fill:#000000"
       sodipodi:type="inkscape:offset"
       inkscape:radius="4.5435019"
       inkscape:original="M 128.01367 2.4199219 C 126.65572 2.3951481 125.27176 2.9214087 122.92969 3.9804688 C 120.88486 4.9051205 117.72833 5.7411596 115.91406 5.8378906 C 111.24184 6.0870004 108.04733 8.0745652 106.25781 11.845703 C 104.37307 15.817496 104.34259 19.001085 106.15625 22.277344 C 107.33091 24.399287 107.31201 25.17172 106.03125 27.648438 C 103.11498 33.287865 106.69674 40.253552 113.375 41.929688 C 114.66064 42.252361 115.71289 42.993557 115.71289 43.578125 C 115.71289 45.70659 119.09182 48.298828 121.86719 48.298828 C 123.58372 48.298828 124.71289 48.833023 124.71289 49.644531 C 124.71289 52.525419 128.48803 54.592061 132.71289 54.025391 C 136.40438 53.530258 136.88763 53.734744 138.25195 56.373047 C 141.20845 62.090332 141.2315 67.719773 138.32227 73.666016 C 134.29033 81.907006 133.82151 82.065495 127.03906 77.476562 C 113.25175 68.148221 98.919516 63.819522 89.878906 66.253906 C 84.405206 67.727821 78.528164 74.748225 62.214844 99.298828 C 47.784584 121.01554 33.995184 144.92264 21.839844 169.29883 C 9.1400735 194.7668 5.4484994 204.36291 5.3183594 212.25195 C 5.2206994 218.17173 5.4195406 218.81288 7.7128906 220.01172 C 9.2881006 220.83516 11.692561 221.0866 14.212891 220.68945 C 31.749191 217.92612 84.594651 190.10933 127.21289 161.20898 C 152.81717 143.84617 156.98736 140.44903 158.67188 135.57812 C 161.73696 126.71523 155.79666 108.46386 145.35547 94.662109 C 142.80188 91.286627 140.71289 88.255487 140.71289 87.927734 C 140.71289 87.599981 143.02163 86.162496 145.84375 84.732422 C 152.77046 81.222394 160.00962 81.141647 166.46875 84.503906 C 171.10692 86.918278 171.20578 87.067987 170.92969 91.261719 C 170.62476 95.893699 172.72448 100.29883 175.23633 100.29883 C 176.17033 100.29883 176.71289 101.28144 176.71289 102.9707 C 176.71289 105.83672 179.21809 109.29883 181.29102 109.29883 C 181.98812 109.29883 183.07456 110.8668 183.70703 112.7832 C 185.86301 119.3159 193.28891 122.38528 198.35352 118.83789 C 200.16337 117.57022 200.68821 117.56657 202.32617 118.80664 C 208.80879 123.7145 220.93556 116.47706 219.42969 108.59961 C 219.19798 107.38749 219.83855 105.137 220.85352 103.59766 C 223.25143 99.960914 223.19973 95.610595 220.70898 91.525391 C 219.61104 89.724598 218.71289 87.19769 218.71289 85.910156 C 218.71289 82.995153 215.38936 78.647297 212.44531 77.712891 C 211.22648 77.326051 208.58793 75.162467 206.58398 72.904297 C 203.169 69.0561 202.6032 68.798828 197.55664 68.798828 L 192.17188 68.798828 L 192.5625 65.455078 C 192.91116 62.468553 193.22955 62.1651 195.5332 62.605469 C 201.37346 63.721907 207.70875 58.922308 207.71875 53.375 C 207.72392 50.450584 208.27272 49.487306 210.72852 48.089844 C 215.86313 45.168025 217.32643 37.621319 213.66211 32.962891 C 212.05416 30.918713 211.83841 29.931692 212.66211 28.392578 C 214.43083 25.087706 213.91025 18.819282 211.625 15.914062 C 207.58323 10.775774 201.64128 9.0675904 196.71289 11.626953 C 194.64466 12.701003 193.62323 12.684481 190.80078 11.53125 C 184.36675 8.9023444 176.71 12.708686 176.36133 18.708984 C 176.25013 20.622582 175.78576 21.138571 174.53516 20.742188 C 172.16663 19.991471 166.07941 22.744708 164.79297 25.148438 C 164.1987 26.258843 163.71289 28.321264 163.71289 29.732422 C 163.71289 31.658714 163.19738 32.298828 161.64648 32.298828 C 160.51032 32.298828 158.7893 32.723602 157.82031 33.242188 C 156.21918 34.099085 156.09799 33.702863 156.49609 28.902344 C 156.89597 24.080341 156.65281 23.300699 153.71875 19.958984 C 151.95099 17.945623 149.8774 16.298828 149.10938 16.298828 C 148.31445 16.298828 147.71289 15.296586 147.71289 13.972656 C 147.71289 10.961052 143.99121 7.5041009 139.85938 6.6777344 C 138.06779 6.3194157 134.95607 5.1872525 132.94531 4.1621094 C 130.70402 3.0194325 129.37162 2.4446956 128.01367 2.4199219 z M 127.58203 11.451172 C 128.67926 11.433364 129.66024 12.233822 130.92969 13.847656 C 132.45399 15.7855 133.68805 16.325021 136.07422 16.097656 C 138.87617 15.830674 139.2228 16.089896 139.3125 18.515625 C 139.44346 22.057746 141.37711 24.298828 144.30078 24.298828 C 147.64111 24.298828 148.95743 27.272368 147.15625 30.744141 C 145.18988 34.534332 145.31696 35.627147 148.21289 39.894531 C 150.19204 42.810973 150.69218 44.745925 150.61328 49.1875 C 150.55846 52.273249 150.17191 55.923828 149.75391 57.298828 L 148.99414 59.798828 L 147.82422 56.798828 C 147.18073 55.148828 146.48874 53.348828 146.28711 52.798828 C 146.08549 52.248828 144.48738 49.840734 142.73633 47.447266 C 140.03433 43.753981 139.12225 43.157527 136.70898 43.511719 C 134.45321 43.842796 133.6371 43.42906 132.76172 41.507812 C 131.83793 39.48032 131.09308 39.152752 128.18555 39.492188 C 125.19572 39.841234 124.71289 39.60597 124.71289 37.798828 C 124.71289 34.613562 122.75702 33.298828 118.01367 33.298828 C 112.94886 33.298828 112.59991 32.227527 116.71289 29.298828 C 120.74449 26.427846 120.74696 22.794122 116.71875 20.501953 C 111.79913 17.702546 113.09599 13.149468 118.15625 15.455078 C 120.45218 16.501174 121.07106 16.331375 123.53711 13.96875 C 125.27249 12.306148 126.4848 11.46898 127.58203 11.451172 z M 186.14258 19.376953 C 187.07632 19.180475 188.39804 19.901312 189.89062 21.798828 C 192.42852 25.025239 196.00707 25.025239 198.12109 21.798828 C 200.0726 18.820445 203.2382 18.544064 204.67383 21.226562 C 205.49376 22.75861 205.19317 23.76302 203.20898 26.121094 C 199.91162 30.039778 200.05771 32.696112 203.71289 35.298828 C 206.7654 37.472404 207.81639 41.298828 205.36133 41.298828 C 204.61841 41.298828 202.62668 40.816777 200.93359 40.226562 C 197.24493 38.940688 193.71289 40.393648 193.71289 43.197266 C 193.71289 44.202288 195.05531 46.715104 196.69727 48.78125 C 201.2465 54.505704 198.64483 56.154437 191.28711 52.210938 C 188.1785 50.544818 186.92031 50.338526 185.05273 51.189453 C 182.41751 52.39014 182.2039 53.871631 183.86914 59.429688 C 184.87253 62.778715 184.78603 63.560727 183.21484 65.296875 C 181.63839 67.038836 180.13731 67.298828 171.68359 67.298828 C 165.62256 67.298828 160.37211 67.860371 157.73438 68.791016 C 153.77821 70.186833 153.55174 70.170661 154.23633 68.541016 C 157.75923 60.15493 158.93317 55.900932 159.52539 49.373047 C 160.14193 42.577043 160.43985 41.765761 162.41797 41.484375 C 163.63043 41.311903 165.96037 42.16009 167.5957 43.369141 C 173.28927 47.578582 175.93804 43.947333 173.15234 35.751953 C 172.14407 32.785675 171.66192 30.015818 172.08203 29.595703 C 172.50215 29.175588 174.59391 29.835929 176.72852 31.064453 C 178.86313 32.292977 181.51582 33.298828 182.625 33.298828 C 185.44792 33.298828 186.96791 30.099779 185.71289 26.798828 C 184.1086 22.579211 184.58634 19.704417 186.14258 19.376953 z M 94.205078 74.320312 C 95.067213 74.329697 96.138121 74.422686 97.550781 74.550781 C 117.7441 76.381848 142.80336 98.576177 149.12695 120.23047 C 151.03307 126.75772 151.16596 132.37284 149.46289 134.41406 C 147.82805 136.37351 141.07803 141.29883 140.02734 141.29883 C 139.5772 141.29883 138.09795 139.20579 136.74023 136.64648 C 131.98505 127.68287 119.60994 122.23682 115.50781 127.30273 C 112.8254 130.61536 115.01744 133.60318 120.70117 134.38281 C 123.57269 134.7767 125.54693 135.75036 126.78516 137.38281 C 128.94143 140.22557 132.20476 147.16721 131.61914 147.66602 C 130.85226 148.31922 107.21415 163.95921 101.53906 167.56836 L 95.865234 171.17773 L 92.503906 165.51172 C 86.603576 155.56668 76.501908 150.08659 73.705078 155.3125 C 72.266808 157.99993 73.504341 159.97849 78.300781 162.66211 C 80.847491 164.08699 83.163963 166.58547 84.939453 169.82422 C 86.439113 172.5598 87.676553 175.0951 87.689453 175.45703 C 87.754043 177.27655 47.905064 198.7243 31.646484 205.62109 C 17.882854 211.45955 13.712891 212.63539 13.712891 210.67969 C 13.712891 207.05392 29.519561 171.15438 31.712891 169.79883 C 33.209881 168.87364 39.257658 173.95668 41.273438 177.83398 C 43.624577 182.35633 46.483972 183.31357 49.076172 180.44922 C 50.711502 178.64221 50.719857 178.25443 49.216797 174.65625 C 47.361487 170.21481 43.637084 166.04164 38.927734 163.12695 L 35.644531 161.09375 L 39.798828 153.44531 C 48.738468 136.99063 61.977106 115.29941 63.066406 115.32031 C 67.924956 115.41335 78.12936 122.94361 81.25 128.73828 C 83.27984 132.50747 85.383803 133.74519 88.033203 132.72852 C 94.476133 130.25614 85.41664 116.20691 73.5 110.19141 C 70.31735 108.58481 67.718563 106.93975 67.726562 106.53516 C 67.747463 105.48357 84.578327 82.140552 88.498047 77.726562 C 90.911652 75.008605 91.618673 74.29216 94.205078 74.320312 z M 170.89844 76.005859 C 171.56233 75.854389 173.37026 75.928711 176.83594 76.115234 C 180.89289 76.333581 184.88789 77.071449 185.71289 77.753906 C 188.26766 79.867266 190.2177 80.136505 192.76367 78.726562 C 195.67354 77.115097 199.34994 76.901796 200.21094 78.294922 C 200.54958 78.842854 201.00938 80.238301 201.23242 81.396484 C 201.87051 84.709817 203.71073 86.298828 206.91406 86.298828 C 209.65315 86.298828 209.8252 86.511375 209.23828 89.183594 C 208.72657 91.513384 209.09546 92.455568 211.1582 94.078125 C 214.26487 96.521828 214.46053 99.826932 211.58984 101.36328 C 209.76634 102.33918 209.55159 103.10572 210.05859 106.80469 C 210.50437 110.05703 210.29089 111.24651 209.1875 111.66992 C 207.72719 112.23029 207.30955 111.89421 203.88086 107.39844 C 201.58069 104.38241 197.59411 105.07093 195.90625 108.77539 C 195.27375 110.16358 194.01227 111.29883 193.10352 111.29883 C 191.76889 111.29883 191.56147 110.61495 192.02734 107.74414 C 192.67662 103.74307 189.96107 99.881401 187.23438 100.92773 C 186.02443 101.39203 185.71289 100.6769 185.71289 97.441406 C 185.71289 94.393056 185.21019 93.100157 183.71289 92.298828 C 182.43149 91.613046 181.71289 90.205857 181.71289 88.380859 C 181.71289 85.564322 177.76326 81.120308 171.82812 77.259766 C 170.71587 76.536293 170.23455 76.15733 170.89844 76.005859 z "
       d="m 128.0957,-2.1230469 c -2.58751,-0.047205 -4.59764,0.8597879 -7.03711,1.96289065 -1.38221,0.62502332 -4.68253,1.42339285 -5.38671,1.46093745 -5.84534,0.311657 -11.09726,3.4930873 -13.51954,8.5976563 -2.279746,4.8042135 -2.398832,10.1938135 0.0293,14.5800785 0.1528,0.276012 0.16414,0.305686 0.20703,0.392578 0.008,-0.168273 0.0651,-0.195572 -0.39258,0.689453 -4.202505,8.126731 0.84149,17.887436 9.59571,20.523437 0.66602,1.935737 2.03999,3.220248 3.39258,4.257813 1.62121,1.243631 3.58098,2.078627 5.88281,2.3125 0.85461,1.965891 2.39999,3.539049 4.08008,4.458984 2.47189,1.353492 5.3587,1.819798 8.36914,1.416016 0.48728,-0.06536 0.62471,-0.05208 0.90234,-0.0625 2.39891,4.64209 2.42802,8.284348 0.0215,13.203125 -0.87452,1.787472 -1.48424,2.922533 -1.96484,3.722656 -0.65855,-0.373371 -1.39227,-0.802026 -2.68945,-1.679687 -14.45739,-9.781708 -29.37818,-14.94516 -40.888674,-11.845704 -4.091471,1.10172 -7.635737,4.04268 -12.070313,9.339844 C 72.192377,76.504195 66.615056,84.466651 58.429687,96.785156 43.887172,118.67081 30.011732,142.72894 17.773437,167.27148 5.0271839,192.83267 0.92790042,202.93265 0.77539062,212.17773 c -0.0497135,3.01345 -0.19588985,4.80388 0.50195308,7.06446 0.697843,2.26058 2.9364794,4.06837 4.3300782,4.79687 2.9209452,1.52692 6.0619851,1.65089 9.3125001,1.13867 10.390537,-1.63731 27.609534,-9.40793 48.503906,-20.40625 20.894372,-10.99832 44.869172,-25.243 66.339842,-39.80273 12.82123,-8.69435 20.28679,-13.88203 25.01758,-17.73633 4.73079,-3.8543 7.07141,-6.9483 8.18555,-10.16992 2.14373,-6.19876 1.00919,-13.57641 -1.56836,-21.49609 -2.57756,-7.91969 -6.86808,-16.305793 -12.41992,-23.644535 -0.76036,-1.005078 -1.31127,-1.7941 -1.93555,-2.662109 0.3212,-0.171016 0.51358,-0.301362 0.85547,-0.47461 5.81322,-2.945779 11.27325,-2.958467 16.47265,-0.251953 1.07179,0.557913 1.68881,0.966775 2.07227,1.212891 -0.007,0.331276 -0.003,0.551831 -0.0469,1.216797 -0.20357,3.092294 0.33158,5.996635 1.5293,8.509765 0.86629,1.817704 2.2829,3.783584 4.4668,4.750004 0.26157,2.1599 1.00037,4.06089 2.15039,5.65039 1.05506,1.45825 2.3745,2.99068 4.52539,3.63867 0.11916,0.24008 0.22277,0.38791 0.32422,0.69531 2.92871,8.8741 13.28529,13.51878 21.01953,8.63672 5.05411,3.25573 11.22576,2.27804 15.78906,-0.44531 4.8055,-2.8679 8.91485,-8.2523 7.69141,-14.65235 0.12649,0.66172 0.0163,0.19667 0.15234,-0.28125 0.13604,-0.47791 0.41241,-1.07835 0.60156,-1.36523 3.33104,-5.05196 3.16395,-11.654006 -0.0586,-16.939454 -0.68781,-1.128117 -1.33203,-4.075418 -1.33203,-3.25 0,-3.184254 -1.35139,-5.493724 -2.96289,-7.601562 -1.61151,-2.107839 -3.53376,-3.99301 -6.47266,-4.925782 0.81749,0.259459 -0.26856,-0.179056 -1.1289,-0.884765 -0.86034,-0.705709 -1.88596,-1.681935 -2.70899,-2.609375 -1.73916,-1.959794 -3.1102,-3.533186 -5.36133,-4.576172 0.666,-0.372444 1.33411,-0.745564 1.93555,-1.201172 3.2329,-2.449016 5.69697,-6.2276 5.70508,-10.728516 0.002,-1.178877 0.14686,-1.249635 -0.01,-0.974609 -0.15663,0.275026 -0.23971,0.179603 0.72461,-0.369141 7.73499,-4.401546 9.75779,-14.890195 4.25586,-21.884765 -0.37821,-0.48082 -0.27344,-0.302694 -0.31836,-0.373047 1.20588,-2.64919 1.50501,-5.414333 1.27735,-8.154297 -0.24902,-2.996965 -0.97539,-5.952578 -2.9961,-8.521484 -5.07707,-6.4544622 -13.58838,-9.1385945 -20.57617,-5.5097659 -0.75416,0.3916435 -0.60647,0.2737622 -0.50586,0.2753906 0.10061,0.00163 -0.35314,-0.038019 -1.59375,-0.5449218 -4.51194,-1.843552 -9.33304,-1.453011 -13.24219,0.4902343 -3.2236,1.6024636 -5.90243,4.5251858 -6.9375,8.2148438 -1.83821,0.164711 -3.36169,0.872008 -4.95312,1.591797 -2.50609,1.13348 -4.89013,2.186669 -6.59961,5.380859 -0.006,0.01071 -0.006,0.02055 -0.0117,0.03125 -0.0441,-0.171321 -0.0241,-0.33389 -0.0781,-0.507812 -0.69733,-2.24471 -2.0229,-3.810667 -3.56446,-5.566407 -1.05979,-1.207031 -2.16676,-2.270369 -3.26758,-3.144531 -0.5504,-0.437081 -1.08987,-0.826763 -1.73046,-1.1875 -0.0168,-0.0095 -0.0399,-0.01964 -0.0566,-0.0293 -0.4099,-2.6767537 -1.88253,-4.7797607 -3.65039,-6.4218746 C 146.3609,4.2579094 143.7534,2.8233369 140.75,2.2226563 139.7711,2.0268762 136.53664,0.89367657 135.00977,0.11523437 132.66856,-1.0783846 130.68081,-2.0758856 128.0957,-2.1230469 Z m -0.70507,18.8124999 c 0.99955,1.264327 2.25658,2.509893 3.96679,3.257813 1.25403,0.548419 2.5319,0.672851 3.76563,0.675781 0.33929,1.847844 0.94271,3.627996 2.19531,5.080078 1.43721,1.666091 3.60667,2.593049 5.82617,2.886719 -0.0154,0.03178 -0.004,0.02866 -0.0215,0.0625 -1.08382,2.089058 -2.08439,4.335856 -1.77539,7.009765 0.28548,2.470365 1.42486,4.25593 2.79882,6.291016 -0.60217,-0.651416 -1.22536,-1.258408 -2.04687,-1.794922 -1.70537,-1.113743 -3.93215,-1.295762 -5.57227,-1.138672 -0.66351,-1.273005 -1.67864,-2.77185 -3.47851,-3.564453 -1.69557,-0.746669 -3.08841,-0.683435 -4.45313,-0.542969 -0.55913,-1.696979 -1.42161,-3.323472 -2.91992,-4.330078 -0.90813,-0.610106 -1.86473,-0.885071 -2.82617,-1.160156 0.88666,-1.392153 1.43046,-2.979965 1.43164,-4.736328 0.001,-1.729547 -0.58812,-3.318408 -1.52539,-4.689453 1.68548,-0.672614 2.78151,-1.651685 3.92383,-2.746094 0.36174,-0.346568 0.46356,-0.375227 0.71094,-0.560547 z m 63.06054,11.179688 c 1.15928,0.534728 2.39549,0.892578 3.71289,0.892578 0.89816,0 1.76731,-0.189171 2.60742,-0.470703 -0.30834,0.994232 -0.51739,2.027645 -0.45507,3.162109 0.0789,1.436787 0.59016,2.712405 1.29101,3.865234 -1.15559,0.06678 -2.30714,0.210048 -3.39648,0.658203 -2.59335,1.0669 -5.04102,3.910904 -5.04102,7.220704 0,1.829343 0.40971,2.703648 0.88086,3.541015 -0.52439,-0.17184 -1.02986,-0.369561 -1.61133,-0.464844 -1.83547,-0.300771 -3.86131,0.138732 -5.27148,0.78125 -0.95853,0.436737 -2.01675,1.019333 -2.98242,2.064454 -0.96567,1.04512 -1.63969,2.558222 -1.83399,3.910156 -0.3886,2.703868 0.28622,4.768569 1.16602,7.705078 0.38822,1.295783 0.36949,1.517162 0.39844,1.449219 -0.0431,0.04648 -0.004,-0.0088 -0.0703,0.06445 -0.38226,0.422396 0.3827,0.05709 -0.59375,0.226562 -0.97645,0.169477 -3.38807,0.28125 -7.56836,0.28125 -4.1832,0 -7.67606,0.298593 -10.82617,0.804688 1.63901,-4.768368 2.76189,-9.021325 3.19336,-13.777344 0.17417,-1.919867 0.2507,-2.122422 0.38672,-3 0.14878,0.089 0.34385,0.156555 0.45703,0.240234 1.8099,1.33812 3.59278,2.321647 5.80859,2.59375 2.21582,0.272104 5.10087,-0.779098 6.52149,-2.726562 2.32261,-3.183969 2.03166,-6.460555 0.98828,-10.113281 0.0788,0.03073 0.15984,0.08355 0.23828,0.113281 1.31195,0.497243 2.24583,0.951172 4.17383,0.951172 3.12775,0 5.98442,-2.093682 7.17773,-4.605469 0.80136,-1.686754 0.87548,-3.526229 0.64844,-5.367187 z m -13.97656,2.425781 c 1.3e-4,0.02578 0.16003,0.214355 0.082,0.634765 -0.066,-0.387045 -0.0823,-0.683004 -0.082,-0.634765 z M 93.744141,78.816406 c -0.0014,9.31e-4 -0.45714,0.03741 0.412109,0.04687 0.576438,0.0063 1.580435,0.08559 2.984375,0.212891 8.620745,0.781702 19.339675,6.26852 28.386715,14.28125 9.04704,8.012728 16.4121,18.468578 19.23828,28.146488 0.86276,2.95438 1.29392,5.66805 1.33985,7.60742 0.0344,1.45453 -0.3367,2.40902 -0.31445,2.54297 -0.22274,0.2127 -2.15433,1.96217 -3.94336,3.26757 -0.22594,0.16487 -0.38285,0.25451 -0.60352,0.41016 -0.17587,-0.3061 -0.31557,-0.4852 -0.49023,-0.81445 -2.96375,-5.58672 -7.89427,-9.69622 -13.04493,-11.96289 -2.57532,-1.13334 -5.23562,-1.82394 -7.97656,-1.73047 -2.74094,0.0935 -5.77668,1.17497 -7.75586,3.61914 -1.07127,1.32296 -1.90342,2.91209 -2.10547,4.75976 -0.20204,1.84768 0.37861,3.84183 1.43164,5.27735 2.10607,2.87103 5.24311,3.91897 8.78125,4.4043 2.15057,0.29499 2.72339,0.77131 3.08204,1.24414 0.66897,0.88195 2.04144,3.26768 2.95312,5.20703 0.0886,0.18838 0.11022,0.27808 0.19141,0.45898 -0.48632,0.32735 -0.84876,0.57475 -1.44336,0.97266 -2.40172,1.60722 -5.60246,3.73293 -8.95508,5.95117 -6.70524,4.43648 -14.07033,9.27295 -16.810548,11.01562 a 4.5439562,4.5439562 0 0 0 -0.002,0 l -1.71875,1.09375 -0.96875,-1.63476 c -3.34388,-5.63613 -7.732181,-9.98413 -12.304687,-12.46484 -2.286253,-1.24036 -4.658139,-2.08711 -7.322266,-1.96485 -2.664127,0.12227 -5.69394,1.80334 -7.085937,4.4043 -1.193828,2.23069 -1.387819,5.83 0.113281,8.23047 1.5011,2.40047 3.601397,3.73569 6.269531,5.22851 1.596195,0.89307 3.424854,2.73915 4.873047,5.38086 0.427161,0.7792 0.734872,1.40122 1.089844,2.08985 -0.9094,0.59042 -1.765411,1.15665 -3.126953,1.96875 -3.882775,2.31589 -9.327992,5.36414 -15.28125,8.56836 -11.906516,6.40843 -25.96463,13.49442 -33.763672,16.80273 -4.840715,2.05341 -7.096409,2.82354 -9.628906,3.73047 0.0844,-0.21971 0.118628,-0.34116 0.207031,-0.56836 1.47952,-3.8025 3.505997,-8.63037 5.597656,-13.38086 2.091659,-4.75049 4.255962,-9.43759 5.998047,-12.95313 0.555535,-1.12107 0.958445,-1.84902 1.404297,-2.68359 1.54704,1.32391 3.276487,3.35797 3.791015,4.34766 1.462778,2.81361 3.257184,5.23654 6.398438,6.28906 3.141254,1.05252 6.781909,-0.48556 8.804687,-2.7207 0.923583,-1.02054 2.36375,-2.83364 2.419922,-5.16407 0.05617,-2.33042 -0.680018,-3.57426 -1.455078,-5.42968 -2.298533,-5.50248 -6.642421,-10.26879 -12.089844,-13.64063 l 0.365235,0.22656 2.105469,-3.875 v -0.002 c 4.420361,-8.13623 9.942256,-17.63386 14.46289,-25.04101 2.26045,-3.7038 4.277769,-6.89519 5.748047,-9.08789 0.287577,-0.42888 0.426092,-0.60056 0.667969,-0.94727 1.421728,0.58363 3.378718,1.48765 5.441406,3.00977 3.16028,2.33205 6.169057,5.54524 7.138672,7.3457 1.227206,2.27878 2.62054,4.23606 4.855469,5.55078 2.234929,1.31472 5.278628,1.40075 7.554687,0.52734 1.643498,-0.63067 3.206195,-1.90553 4.074219,-3.49414 0.868024,-1.58861 1.064443,-3.28879 0.953125,-4.80078 -0.222635,-3.02397 -1.487549,-5.66798 -3.216797,-8.34961 -3.458496,-5.36326 -9.10873,-10.75115 -15.923828,-14.1914 -0.661862,-0.33411 -1.076828,-0.60117 -1.65625,-0.92188 0.117487,-0.17346 0.165975,-0.2563 0.291016,-0.43945 1.605857,-2.3522 3.820626,-5.487988 6.154296,-8.724612 4.667341,-6.473248 10.09529,-13.656863 11.558594,-15.304687 1.192156,-1.342485 1.851058,-1.928666 1.84961,-1.927735 z m 89.802729,2.929688 c 1.47667,1.109579 3.10902,2.045256 5.07422,2.316406 2.27732,0.314214 4.53346,-0.3588 6.34375,-1.361328 0.57107,-0.316254 1.18966,-0.41788 1.7793,-0.544922 0.0132,0.05077 0.019,0.05617 0.0273,0.09961 0.44692,2.320661 1.46511,4.628571 3.3711,6.273438 1.26521,1.091877 2.80722,1.628014 4.38281,1.949219 -0.0308,0.985102 0.0619,2.018811 0.47656,3.076171 0.75439,1.923761 2.08385,3.099632 3.34766,4.09375 0.36071,0.283736 0.22986,0.160227 0.32617,0.304688 -1.20884,0.835986 -2.60711,2.127815 -3.09961,3.878905 -0.095,0.33767 -0.0524,0.59619 -0.10547,0.90625 -1.92606,-1.37143 -4.31814,-2.03903 -6.58008,-1.64844 -1.14362,0.19749 -2.17908,0.686 -3.14648,1.29102 -0.33381,-0.8741 -0.59289,-1.78572 -1.13086,-2.550782 -0.84733,-1.205011 -1.98081,-2.303543 -3.55273,-2.998047 -0.25072,-0.110773 -0.56988,-0.106075 -0.84375,-0.1875 -0.0321,-1.452552 -0.14642,-2.822109 -0.70703,-4.263672 -0.60865,-1.565083 -1.95554,-2.968484 -3.29688,-3.804687 0.0224,0.0046 0.043,0.03551 0.043,-0.195313 0,-2.781226 -1.22067,-4.753453 -2.70899,-6.634765 z m 2.64454,14.773437 c 0.0707,-0.01007 0.22286,0.03005 0.30664,0.02539 -0.29574,0.06845 -0.60683,0.03172 -0.89063,0.140625 0.0613,-0.02353 0.25012,-0.118508 0.58399,-0.166016 z" />
  </g>
</svg>
