<?xml version="1.0" encoding="UTF-8" standalone="no"?>
<!-- Created with Inkscape (http://www.inkscape.org/) -->

<svg
   width="57.263882mm"
   height="57.265572mm"
   viewBox="0 0 57.263882 57.265572"
   version="1.1"
   id="svg1"
   xml:space="preserve"
   inkscape:version="1.4 (86a8ad7, 2024-10-11)"
   sodipodi:docname="meat.svg"
   xmlns:inkscape="http://www.inkscape.org/namespaces/inkscape"
   xmlns:sodipodi="http://sodipodi.sourceforge.net/DTD/sodipodi-0.dtd"
   xmlns="http://www.w3.org/2000/svg"
   xmlns:svg="http://www.w3.org/2000/svg"><sodipodi:namedview
     id="namedview1"
     pagecolor="#ffffff"
     bordercolor="#000000"
     borderopacity="0.25"
     inkscape:showpageshadow="2"
     inkscape:pageopacity="0.0"
     inkscape:pagecheckerboard="0"
     inkscape:deskcolor="#d1d1d1"
     inkscape:document-units="mm"
     showgrid="false"
     inkscape:zoom="1"
     inkscape:cx="161"
     inkscape:cy="177.5"
     inkscape:window-width="1920"
     inkscape:window-height="1001"
     inkscape:window-x="-9"
     inkscape:window-y="-9"
     inkscape:window-maximized="1"
     inkscape:current-layer="layer1" /><defs
     id="defs1" /><g
     inkscape:label="Ebene 1"
     inkscape:groupmode="layer"
     id="layer1"
     transform="translate(-62.406227,-101.60388)"><path
       id="path1"
       style="fill:#000000"
       sodipodi:type="inkscape:offset"
       inkscape:radius="0.35888937"
       inkscape:original="M 96.078125 101.60938 C 95.139274 101.57493 94.290608 101.68963 93.767578 101.96289 C 93.374618 102.16819 90.362622 105.05533 87.074219 108.37891 C 81.304246 114.21061 81.051046 114.50985 79.857422 116.93555 C 77.3417 122.04804 77.19866 127.48131 79.445312 132.50586 L 80.302734 134.42383 L 77.285156 137.54883 C 75.625405 139.26761 74.113479 140.69054 73.925781 140.71094 C 73.738083 140.73135 73.083369 140.48851 72.470703 140.16992 C 70.851545 139.3279 68.105202 139.35119 66.371094 140.22266 C 62.017086 142.41074 61.041149 148.33957 64.484375 151.68359 C 65.03706 152.22035 65.947585 152.79699 66.507812 152.96484 C 67.689756 153.31895 67.87197 153.50663 68.291016 154.80859 C 68.873359 156.61791 70.939353 158.28354 73.162109 158.73438 C 76.238089 159.35827 79.481931 157.77543 80.945312 154.93555 C 81.876603 153.12827 81.92842 150.42511 81.064453 148.76367 C 80.745861 148.151 80.484375 147.52081 80.484375 147.36328 C 80.484375 146.9921 86.381912 141.01367 86.748047 141.01367 C 86.901151 141.01367 87.792221 141.36062 88.728516 141.78516 C 93.664528 144.02326 99.073409 143.87446 104.29688 141.35742 C 106.74357 140.17843 106.97135 139.98772 112.85352 134.16406 C 116.1771 130.87354 119.07979 127.83135 119.30273 127.4043 C 120.21669 125.6535 119.39769 122.20795 117.19141 118.52344 C 113.20707 111.86958 104.7553 104.293 98.929688 102.15234 C 98.045542 101.82746 97.016976 101.64382 96.078125 101.60938 z M 96.724609 104.89648 C 100.42773 105.43806 108.19077 111.48011 112.54492 117.20898 C 115.34471 120.89276 117.22867 125.14645 116.4668 126.06445 C 116.04695 126.57029 115.59646 126.55347 113.9043 125.96875 C 110.77761 124.88833 105.51986 121.12622 102.30273 117.66797 C 98.672858 113.76602 95.598605 108.89685 95.171875 106.37109 C 94.937505 104.98384 95.255979 104.68169 96.724609 104.89648 z M 92.064453 108.09766 L 93.291016 110.5625 C 95.185626 114.36936 96.974837 116.76586 100.7207 120.51172 C 104.53101 124.32204 106.94618 126.10993 110.79102 127.96875 L 113.35938 129.21094 L 109.1582 133.33203 C 104.77685 137.62981 103.31035 138.66202 100.35742 139.5293 C 95.105166 141.07191 89.764859 139.6798 85.746094 135.7207 C 82.692608 132.71255 81.279297 129.36328 81.279297 125.13867 C 81.279297 122.62289 81.689609 120.85198 82.814453 118.52344 C 83.635056 116.82472 84.369232 115.93198 87.917969 112.31836 L 92.064453 108.09766 z M 103.52539 112.27148 C 103.34581 112.26097 103.22039 112.34407 103.05078 112.51367 C 102.71157 112.85288 102.72962 113.02563 103.19531 113.92578 C 103.8029 115.10022 106.16448 117.47038 107.33984 118.08594 C 108.49085 118.68875 108.79492 118.62459 108.79492 117.77539 C 108.79492 116.30774 106.60561 113.76427 104.33008 112.58789 C 103.9385 112.38544 103.70497 112.282 103.52539 112.27148 z M 82.333984 137.18555 L 83.191406 138.04102 L 84.048828 138.89844 L 79.580078 143.375 L 75.109375 147.84961 L 76.191406 148.14062 C 78.139304 148.66514 79.445735 150.92347 78.908203 152.83594 C 78.552621 154.10105 78.200812 154.55861 77.041016 155.26562 C 74.057434 157.08443 70.38253 154.04723 71.431641 150.62891 C 71.734536 149.64199 71.844622 149.68114 70.138672 150.16797 C 69.317343 150.40235 67.379303 149.7781 66.707031 149.0625 C 65.942006 148.24817 65.716075 146.16727 66.275391 145.0918 C 67.015715 143.66828 67.925734 143.04929 69.4375 142.94141 C 71.255267 142.81169 72.002995 143.22893 72.785156 144.80664 L 73.419922 146.08789 L 77.876953 141.63672 L 82.333984 137.18555 z "
       d="m 96.091797,101.25 c -0.975943,-0.0358 -1.862514,0.0666 -2.490235,0.39453 -0.118727,0.062 -0.195454,0.12993 -0.328125,0.24024 -0.13267,0.1103 -0.29936,0.25584 -0.496093,0.43359 -0.393466,0.35549 -0.911357,0.84086 -1.519532,1.42383 -1.216348,1.16594 -2.793263,2.72096 -4.439453,4.38476 -2.885299,2.91617 -4.392663,4.44864 -5.34375,5.57618 -0.951086,1.12753 -1.340783,1.85759 -1.939453,3.07421 -2.557816,5.19804 -2.70629,10.75726 -0.417969,15.875 l 0.759766,1.69727 -2.849609,2.94922 c -0.826427,0.85582 -1.617723,1.63948 -2.220703,2.20703 -0.30149,0.28377 -0.55515,0.51435 -0.740235,0.66992 -0.09254,0.0778 -0.168308,0.13564 -0.216797,0.16992 -0.01533,-0.002 -0.0073,-0.002 -0.05469,-0.0137 -0.07925,-0.0203 -0.189097,-0.0557 -0.3125,-0.10156 -0.246807,-0.0917 -0.552682,-0.22653 -0.845703,-0.37891 -1.768942,-0.91991 -4.560078,-0.8878 -6.427735,0.0508 -4.567193,2.29522 -5.594237,8.52373 -1.974609,12.03907 0.601852,0.58451 1.495632,1.16516 2.169922,1.36718 0.579131,0.17351 0.848822,0.29218 1.023437,0.47266 0.174616,0.18048 0.315069,0.49539 0.521485,1.13672 0.638508,1.98382 2.791559,3.69151 5.140625,4.16797 3.240047,0.65716 6.6364,-1.00275 8.173828,-3.98633 0.995554,-1.93199 1.059331,-4.69393 0.11914,-6.50195 -0.1546,-0.29731 -0.296292,-0.60005 -0.396484,-0.8418 -0.0501,-0.12088 -0.09019,-0.22758 -0.115234,-0.30469 -0.01008,-0.031 -0.0075,-0.0142 -0.01172,-0.0351 0.03378,-0.0489 0.08649,-0.11698 0.158203,-0.20508 0.154246,-0.1895 0.383402,-0.45037 0.660156,-0.75391 0.553509,-0.60707 1.299095,-1.38831 2.056641,-2.15625 0.757546,-0.76794 1.52616,-1.52485 2.125,-2.08594 0.29942,-0.28054 0.55728,-0.51166 0.744141,-0.66797 0.08503,-0.0711 0.151219,-0.12193 0.199218,-0.15625 0.02543,0.006 0.01232,0.005 0.07617,0.0254 0.109526,0.0358 0.260104,0.0899 0.435547,0.1582 0.350887,0.13667 0.802987,0.32734 1.265625,0.53711 5.031266,2.28129 10.567277,2.12701 15.873052,-0.42969 1.22623,-0.59089 1.94493,-0.96325 3.06445,-1.9043 1.11951,-0.94105 2.64655,-2.44534 5.58789,-5.35742 1.66396,-1.64741 3.22229,-3.23228 4.39453,-4.46094 0.58612,-0.61432 1.07592,-1.13963 1.43555,-1.54101 0.17981,-0.20069 0.32691,-0.37083 0.43945,-0.50781 0.11254,-0.13699 0.18475,-0.22234 0.24609,-0.33985 0.52203,-1 0.52213,-2.37649 0.14454,-3.96484 -0.3776,-1.58836 -1.14721,-3.39786 -2.26563,-5.26563 -4.03757,-6.74276 -12.4698,-14.32698 -18.447266,-16.52343 -0.92763,-0.34086 -1.984977,-0.53061 -2.960937,-0.56641 z m -0.232422,3.94922 c 0.185421,-0.0158 0.459102,0.001 0.8125,0.0527 1.698002,0.24834 4.573465,1.86252 7.498045,4.13868 2.92458,2.27615 5.93817,5.20413 8.08985,8.03515 1.38309,1.81978 2.54261,3.78654 3.2539,5.39258 0.35565,0.80302 0.59811,1.51758 0.70313,2.06055 0.10501,0.54296 0.0317,0.88827 -0.0254,0.95703 -0.16839,0.20287 -0.22166,0.24144 -0.51563,0.23047 -0.29397,-0.011 -0.8165,-0.14801 -1.6543,-0.4375 -3.001,-1.03699 -8.28235,-4.79457 -11.45507,-8.20508 -1.79865,-1.93346 -3.464115,-4.11146 -4.726566,-6.11133 -1.262451,-1.99987 -2.118361,-3.84131 -2.314453,-5.00195 -0.05601,-0.33154 -0.07367,-0.58671 -0.05859,-0.75391 0.01508,-0.1672 0.05138,-0.22714 0.08984,-0.26367 0.03847,-0.0365 0.117313,-0.078 0.302734,-0.0937 z m -3.892578,3.50976 1.001953,2.01368 c 1.907998,3.83376 3.73847,6.28339 7.49805,10.04297 3.82423,3.82424 6.29496,5.65295 10.16797,7.52539 l 2.10937,1.01953 -3.83789,3.76562 c -2.18664,2.14493 -3.6381,3.46572 -4.89062,4.34766 -1.25253,0.88194 -2.30483,1.3344 -3.75977,1.76172 -5.133131,1.50762 -10.322319,0.15636 -14.257813,-3.72071 -2.998052,-2.95354 -4.359375,-6.1816 -4.359375,-10.32617 0,-2.47676 0.389334,-4.16384 1.498047,-6.45898 0.805556,-1.66757 1.491738,-2.49919 5.037109,-6.10938 z m 11.580083,3.20508 c -0.29946,-0.0175 -0.55929,0.155 -0.75,0.34571 -0.0967,0.0967 -0.18724,0.19783 -0.25391,0.33203 -0.0667,0.13419 -0.094,0.30049 -0.0781,0.45508 0.0317,0.30917 0.17583,0.58625 0.41211,1.04296 0.34572,0.66826 1.09597,1.54797 1.92383,2.37891 0.82786,0.83094 1.70518,1.58577 2.37305,1.93555 0.59165,0.30986 0.96453,0.51471 1.40039,0.42187 0.21793,-0.0464 0.41111,-0.23321 0.48828,-0.42578 0.0772,-0.19256 0.0918,-0.39128 0.0918,-0.625 0,-0.91228 -0.60573,-1.93709 -1.4668,-2.9375 -0.86107,-1.00041 -2.00357,-1.95327 -3.19336,-2.56836 -0.39899,-0.20628 -0.64871,-0.33798 -0.94726,-0.35547 z m -21.212896,25.7793 0.603516,0.60156 0.603516,0.60352 -4.214844,4.22265 -4.470703,4.47461 a 0.35892526,0.35892526 0 0 0 0.160156,0.59961 l 1.082031,0.29102 c 1.737061,0.46774 2.941476,2.55616 2.464844,4.25195 -0.344996,1.22745 -0.580408,1.53273 -1.708984,2.2207 -1.360064,0.82911 -2.840996,0.55143 -3.900391,-0.32421 -1.059395,-0.87565 -1.659057,-2.3321 -1.177734,-3.9004 0.07374,-0.24026 0.138103,-0.41637 0.173828,-0.58984 0.01786,-0.0867 0.03606,-0.17576 0.0059,-0.30469 -0.0302,-0.12892 -0.167365,-0.28585 -0.296875,-0.33203 -0.25902,-0.0924 -0.403387,-0.0213 -0.642578,0.0391 -0.239191,0.0603 -0.550322,0.15432 -0.974609,0.2754 -0.258186,0.0737 -0.931591,0.0105 -1.564454,-0.19336 -0.632862,-0.20387 -1.253855,-0.54218 -1.507812,-0.8125 -0.290133,-0.30884 -0.540701,-0.97579 -0.617188,-1.67969 -0.07649,-0.7039 0.01537,-1.44279 0.242188,-1.87891 0.704426,-1.35449 1.444396,-1.85731 2.869141,-1.95898 0.878147,-0.0627 1.43836,0.0123 1.861328,0.24804 0.422967,0.23574 0.762214,0.66057 1.138672,1.41993 l 0.634765,1.28125 a 0.35892526,0.35892526 0 0 0 0.576172,0.0937 l 4.457031,-4.45118 z" /></g></svg>
