<?xml version="1.0" encoding="UTF-8" standalone="no"?>
<!-- Created with Inkscape (http://www.inkscape.org/) -->

<svg
   width="62.668015mm"
   height="58.556507mm"
   viewBox="0 0 62.668015 58.556507"
   version="1.1"
   id="svg1"
   xml:space="preserve"
   inkscape:version="1.4 (86a8ad7, 2024-10-11)"
   sodipodi:docname="steak.svg"
   xmlns:inkscape="http://www.inkscape.org/namespaces/inkscape"
   xmlns:sodipodi="http://sodipodi.sourceforge.net/DTD/sodipodi-0.dtd"
   xmlns="http://www.w3.org/2000/svg"
   xmlns:svg="http://www.w3.org/2000/svg"><sodipodi:namedview
     id="namedview1"
     pagecolor="#ffffff"
     bordercolor="#000000"
     borderopacity="0.25"
     inkscape:showpageshadow="2"
     inkscape:pageopacity="0.0"
     inkscape:pagecheckerboard="0"
     inkscape:deskcolor="#d1d1d1"
     inkscape:document-units="mm"
     showgrid="false"
     inkscape:zoom="0.69753788"
     inkscape:cx="130.45887"
     inkscape:cy="320.41271"
     inkscape:window-width="1920"
     inkscape:window-height="1001"
     inkscape:window-x="-9"
     inkscape:window-y="-9"
     inkscape:window-maximized="1"
     inkscape:current-layer="layer1" /><defs
     id="defs1" /><g
     inkscape:label="Ebene 1"
     inkscape:groupmode="layer"
     id="layer1"
     transform="translate(-70.447067,-63.701768)"><path
       style="fill:#000000"
       d="m 106.48779,121.96986 c -5.07276,-1.16583 -9.677952,-4.05877 -12.626172,-7.93164 -1.89976,-2.49558 -2.69292,-4.14525 -4.89311,-10.17711 -1.02759,-2.81716 -2.19214,-5.728848 -2.58788,-6.470418 -1.25497,-2.35167 -3.5266,-4.35061 -6.94205,-6.10872 -4.8522,-2.49767 -7.76176,-5.81512 -8.71024,-9.93132 -0.45604,-1.97911 -0.34458,-5.30461 0.24047,-7.17467 1.1201,-3.58025 3.76314,-6.71179 7.02864,-8.32769 2.55469,-1.26417 7.73322,-2.32959 10.30467,-2.12007 2.01054,0.16381 20.489832,4.30533 23.204392,5.20049 5.90208,1.94627 11.87048,6.40234 15.62798,11.66801 4.34163,6.08424 6.79669,15.58652 5.7338,22.192538 -1.53936,9.5673 -7.51955,16.43517 -16.52034,18.97258 -1.958,0.55198 -7.82497,0.67575 -9.86016,0.20802 z m 7.8208,-4.7783 c 8.15208,-1.65638 13.92392,-9.05398 13.9208,-17.841888 -0.002,-5.85316 -2.3424,-12.56157 -5.94682,-17.04625 -4.11738,-5.12293 -9.02316,-8.14579 -15.7242,-9.68901 -19.209002,-4.42375 -19.200452,-4.4225 -23.415632,-3.41533 -3.68759,0.88111 -5.86561,2.5341 -7.22699,5.48487 -0.88509,1.91844 -0.82108,5.24717 0.13853,7.20322 0.99931,2.037 2.56135,3.43467 5.63326,5.04047 3.34663,1.74942 4.78152,2.79314 6.59502,4.79712 1.88593,2.08402 3.13102,4.5538 5.31118,10.535328 2.03005,5.56966 2.56501,6.71938 4.03978,8.68211 1.51459,2.01573 3.587432,3.68751 6.014432,4.85074 3.62626,1.73802 6.88565,2.16563 10.66064,1.39862 z m -7.49766,-6.0559 c -0.63131,-0.63131 -0.8388,-1.72424 -0.49663,-2.61592 0.16966,-0.44211 14.92203,-13.612108 15.81835,-14.121628 0.90373,-0.51374 1.69021,-0.39335 2.53154,0.3875 0.7558,0.70147 0.90767,1.1273 0.84236,2.36179 -0.0309,0.58479 -1.95042,2.38361 -11.46865,10.747718 -4.14924,3.64613 -4.49414,3.88997 -5.50213,3.88997 -0.78902,0 -1.24836,-0.17295 -1.72484,-0.64943 z m -7.499482,-9.2448 c -0.74211,-0.41132 -1.32943,-1.37421 -1.34266,-2.201248 -0.005,-0.32236 0.35102,-0.99658 0.79152,-1.49828 1.455942,-1.65822 16.667112,-15.10903 17.345912,-15.3385 0.91099,-0.30795 2.15548,0.24696 2.63546,1.17514 0.50223,0.97119 0.48328,1.53997 -0.08,2.40258 -0.63956,0.97938 -16.65051,15.281908 -17.44581,15.584288 -0.83946,0.31916 -1.14022,0.29958 -1.904412,-0.12398 z m -6.88799,-11.692828 c -1.10531,-0.93006 -1.14162,-2.40344 -0.0864,-3.50772 1.06729,-1.11697 11.211742,-9.69551 11.888852,-10.05368 0.9809,-0.51887 1.92349,-0.35855 2.74973,0.46769 0.86191,0.86191 1.0107,1.94506 0.38911,2.83251 -0.47215,0.67409 -11.931952,10.47906 -12.539952,10.72914 -0.85616,0.35216 -1.59861,0.20748 -2.4013,-0.46794 z m -9.90609,-8.21464 c -0.4996,-0.4996 -0.69754,-0.97239 -0.69754,-1.6661 0,-1.17388 0.41259,-1.59131 5.72429,-5.79153 3.33061,-2.63369 3.85401,-2.95734 4.78252,-2.95734 1.72003,0 2.91211,1.81176 2.14917,3.26638 -0.19407,0.37002 -2.37692,2.28601 -4.85077,4.25776 -3.89999,3.10843 -4.62502,3.58523 -5.45403,3.58668 -0.68172,0.001 -1.15628,-0.19849 -1.65364,-0.69585 z"
       id="path1" /></g></svg>
