<?xml version="1.0" encoding="UTF-8" standalone="no"?>
<!-- Created with Inkscape (http://www.inkscape.org/) -->

<svg
   width="92.947006mm"
   height="135.41399mm"
   viewBox="0 0 92.947006 135.41399"
   version="1.1"
   id="svg1"
   xml:space="preserve"
   inkscape:version="1.4 (86a8ad7, 2024-10-11)"
   sodipodi:docname="walkie-talkie.svg"
   xmlns:inkscape="http://www.inkscape.org/namespaces/inkscape"
   xmlns:sodipodi="http://sodipodi.sourceforge.net/DTD/sodipodi-0.dtd"
   xmlns="http://www.w3.org/2000/svg"
   xmlns:svg="http://www.w3.org/2000/svg"><sodipodi:namedview
     id="namedview1"
     pagecolor="#ffffff"
     bordercolor="#000000"
     borderopacity="0.25"
     inkscape:showpageshadow="2"
     inkscape:pageopacity="0.0"
     inkscape:pagecheckerboard="0"
     inkscape:deskcolor="#d1d1d1"
     inkscape:document-units="mm"
     inkscape:zoom="0.69753788"
     inkscape:cx="196.4051"
     inkscape:cy="247.2984"
     inkscape:window-width="1920"
     inkscape:window-height="1001"
     inkscape:window-x="-9"
     inkscape:window-y="-9"
     inkscape:window-maximized="1"
     inkscape:current-layer="layer1" /><defs
     id="defs1" /><g
     inkscape:label="Ebene 1"
     inkscape:groupmode="layer"
     id="layer1"
     transform="translate(-58.077576,-72.720841)"><path
       style="fill:#000000"
       d="m 67.629729,207.73331 c -4.862945,-1.30781 -8.577026,-5.43014 -9.277644,-10.29744 -0.366012,-2.54273 -0.366012,-111.492664 0,-114.035404 1.030874,-7.16163 8.310074,-12.1025 15.190054,-10.31049 5.0363,1.31179 8.74729,5.46412 9.40455,10.52302 0.13607,1.04728 0.25107,4.73187 0.25556,8.18799 l 0.008,6.28386 18.983861,0.008 c 10.62347,0.005 19.85136,0.12075 20.95372,0.26381 4.93764,0.640793 8.87884,3.945034 10.33715,8.666494 0.51515,1.66786 0.52526,2.5585 0.52526,46.26335 0,44.41465 -0.002,44.56824 -0.54975,46.20807 -1.44352,4.3202 -5.10055,7.557 -9.47553,8.38669 -0.9137,0.17328 -11.01149,0.26383 -28.176961,0.25265 -22.48911,-0.0146 -26.98015,-0.0785 -28.17844,-0.40077 z m 55.955821,-8.02346 c 0.59648,-0.27089 1.37038,-0.89335 1.71979,-1.38325 l 0.63528,-0.89073 0.0732,-43.78854 c 0.0403,-24.08368 0.007,-44.05942 -0.0729,-44.39051 -0.0803,-0.33109 -0.56745,-1.06841 -1.08249,-1.6385 -0.72348,-0.8008 -1.24843,-1.10375 -2.30839,-1.33218 -0.97332,-0.20975 -8.90605,-0.27181 -27.301121,-0.21358 l -25.92916,0.0821 -0.97885,0.60865 c -0.53837,0.33475 -1.25275,1.04913 -1.5875,1.5875 l -0.60865,0.97885 -0.0693,43.21949 c -0.0469,29.25244 0.0195,43.54914 0.20539,44.23953 0.33808,1.25551 1.28824,2.42 2.43633,2.98588 0.78079,0.38485 3.50156,0.42743 27.32547,0.42762 25.237651,2e-4 26.508351,-0.0225 27.542831,-0.49231 z m -36.958411,-8.73817 c -3.3555,-1.04818 -3.93958,-5.35376 -0.97174,-7.16328 0.81795,-0.49871 1.34941,-0.52581 10.32967,-0.52675 10.460771,-0.001 10.726171,0.0352 11.858411,1.62272 0.47347,0.66386 0.63464,1.23766 0.63464,2.2595 0,1.47967 -0.48443,2.37779 -1.82122,3.37649 -0.70193,0.52439 -1.0906,0.54744 -10.037811,0.5953 -5.1192,0.0274 -9.61557,-0.0464 -9.99195,-0.16398 z m -9.10526,-17.2053 c -0.29104,-0.12117 -0.88635,-0.59769 -1.32292,-1.05893 -0.70597,-0.74588 -0.79375,-1.01955 -0.79375,-2.47489 0,-1.22479 0.13308,-1.81363 0.52917,-2.34154 1.2158,-1.62041 0.21301,-1.54369 20.17618,-1.54369 h 18.242431 l 0.89902,0.60059 c 2.36276,1.57842 2.36276,4.89332 0,6.47174 l -0.89902,0.60059 -18.150961,-0.0168 c -9.98304,-0.009 -18.38911,-0.11592 -18.68015,-0.2371 z m 8.33965,-17.1429 c -2.82989,-1.42178 -2.82083,-5.38149 0.0157,-6.88151 1.15377,-0.61013 1.17332,-0.61112 10.60261,-0.53576 9.066371,0.0725 9.476091,0.0975 10.176941,0.62101 1.33683,0.99863 1.82129,1.89678 1.82129,3.37649 0,0.99314 -0.16222,1.59709 -0.5901,2.19694 -1.17894,1.65278 -1.41271,1.68631 -11.753001,1.68585 -8.3762,-3.6e-4 -9.44886,-0.0487 -10.27349,-0.46302 z m -8.47607,-16.95979 c -0.50705,-0.26945 -1.1898,-0.88237 -1.51722,-1.36204 -0.59069,-0.86536 -0.59531,-0.94748 -0.59433,-10.55645 9.4e-4,-9.19675 0.0275,-9.72772 0.52675,-10.54663 0.28917,-0.47427 0.9138,-1.0989 1.38807,-1.38807 0.83829,-0.51111 1.36814,-0.52579 19.0133,-0.52675 l 18.150961,-9.9e-4 0.89902,0.60059 c 1.80051,1.20281 1.8242,1.35655 1.82466,11.83896 4.7e-4,10.74028 -6e-4,10.74625 -2.12575,11.83597 l -1.16097,0.59532 H 96.048669 c -16.75904,0 -17.79234,-0.0271 -18.66321,-0.48991 z m 31.754121,-11.94551 v -4.49792 H 96.175009 83.210419 v 4.49792 4.49792 h 12.96459 12.964571 z M 69.319799,98.336606 c 0.87312,-0.13262 2.57687,-0.24352 3.78609,-0.24644 l 2.1986,-0.005 -0.0819,-7.07761 c -0.0915,-7.90371 -0.13298,-8.10307 -1.97929,-9.51132 -0.82132,-0.62645 -1.22417,-0.74128 -2.60056,-0.74128 -1.37639,0 -1.77924,0.11483 -2.60056,0.74128 -1.85996,1.41867 -1.88786,1.55887 -1.97884,9.94434 l -0.0815,7.510623 0.87524,-0.18657 c 0.48138,-0.10262 1.58961,-0.295083 2.46273,-0.427703 z m 75.549331,15.459434 c -1.18469,-0.99685 -1.50553,-1.80196 -1.7182,-4.31163 -0.73195,-8.63768 -5.6737,-15.530214 -13.4582,-18.770904 -2.03818,-0.8485 -5.75118,-1.62449 -7.77291,-1.62449 -3.79647,0 -5.63743,-4.40362 -2.86033,-6.84195 1.2116,-1.06381 2.27319,-1.22515 5.59886,-0.85093 13.24121,1.48997 23.71171,11.26548 26.01485,24.288104 0.49726,2.81165 0.46256,5.89964 -0.0775,6.89825 -1.05672,1.95388 -4.08425,2.59546 -5.72656,1.21355 z"
       id="path1" /></g></svg>
