<?xml version="1.0" encoding="UTF-8" standalone="no"?>
<!-- Created with Inkscape (http://www.inkscape.org/) -->

<svg
   width="73.973358mm"
   height="71.364937mm"
   viewBox="0 0 73.973358 71.364937"
   version="1.1"
   id="svg1"
   xml:space="preserve"
   inkscape:version="1.4 (86a8ad7, 2024-10-11)"
   sodipodi:docname="cheese.svg"
   xmlns:inkscape="http://www.inkscape.org/namespaces/inkscape"
   xmlns:sodipodi="http://sodipodi.sourceforge.net/DTD/sodipodi-0.dtd"
   xmlns="http://www.w3.org/2000/svg"
   xmlns:svg="http://www.w3.org/2000/svg"><sodipodi:namedview
     id="namedview1"
     pagecolor="#ffffff"
     bordercolor="#000000"
     borderopacity="0.25"
     inkscape:showpageshadow="2"
     inkscape:pageopacity="0.0"
     inkscape:pagecheckerboard="0"
     inkscape:deskcolor="#d1d1d1"
     inkscape:document-units="mm"
     showgrid="false"
     inkscape:zoom="0.69753788"
     inkscape:cx="-10.035297"
     inkscape:cy="300.34211"
     inkscape:window-width="1920"
     inkscape:window-height="1001"
     inkscape:window-x="-9"
     inkscape:window-y="-9"
     inkscape:window-maximized="1"
     inkscape:current-layer="layer1" /><defs
     id="defs1" /><g
     inkscape:label="Ebene 1"
     inkscape:groupmode="layer"
     id="layer1"
     transform="translate(-107.60282,-68.998198)"><path
       id="path1"
       style="fill:#000000"
       sodipodi:type="inkscape:offset"
       inkscape:radius="0.42872345"
       inkscape:original="M 156.80469 69.474609 C 154.81852 69.250599 151.60901 69.864748 149.39648 70.892578 C 147.98954 71.546178 141.78102 76.08741 141.25977 76.84375 C 140.7258 77.61853 140.76908 78.422955 141.42773 79.890625 C 142.71437 82.757645 142.17527 85.533741 139.96484 87.425781 C 137.65563 89.402381 134.8057 89.364606 132.06836 87.322266 C 130.57376 86.207146 129.51123 85.994916 128.47852 86.603516 C 128.17861 86.780266 123.55878 90.299138 118.21094 94.423828 C 111.88915 99.299708 108.39526 102.16175 108.22656 102.60547 C 108.07136 103.01365 107.99882 106.46936 108.04492 111.20312 L 108.12305 119.11719 L 108.86523 119.75586 C 109.2843 120.11615 109.94346 120.39453 110.38086 120.39453 C 111.59613 120.39453 112.85742 121.67475 112.85742 122.9082 C 112.85742 124.14165 111.59613 125.42188 110.38086 125.42188 C 109.94275 125.42188 109.28498 125.69907 108.86523 126.06055 L 108.12305 126.70117 L 108.12305 130.625 C 108.12305 134.52809 108.12623 134.55742 108.94336 135.99805 C 109.9436 137.76154 111.2136 138.83135 113.07031 139.47266 C 114.74895 140.05247 114.243 140.02917 118.44141 139.71289 C 120.33319 139.57038 128.54811 138.97821 136.69727 138.39648 C 144.84644 137.81475 151.89469 137.27261 152.36133 137.19141 C 153.2451 137.03765 154.28997 135.9832 154.29297 135.24219 C 154.29639 134.25213 154.90223 132.75504 155.64062 131.91406 C 157.94969 129.28418 162.19915 129.88425 163.58984 133.03711 C 165.12304 136.51305 164.79289 136.38677 171.06641 135.89844 C 175.54461 135.54986 176.0895 135.45327 177.32422 134.78125 C 178.80603 133.97475 179.67303 133.07253 180.56445 131.40625 L 181.14648 130.31641 L 181.14648 111.92773 L 181.14648 93.539062 L 180.51367 91.025391 C 179.69865 87.786431 178.49028 84.935706 176.90039 82.509766 C 175.30102 80.069346 171.13783 75.908563 168.70117 74.314453 C 164.71992 71.709843 160.1536 69.852319 156.80469 69.474609 z M 155.27734 74.388672 C 156.53021 74.353036 157.82383 74.517505 158.95703 74.890625 C 167.0068 77.541125 173.15982 83.506229 175.42773 90.855469 C 176.44216 94.142769 177.84532 93.634229 163.35352 95.224609 C 156.4049 95.987169 143.75516 97.378886 135.24219 98.316406 C 126.72922 99.253926 119.59186 100.02122 119.38086 100.02148 C 118.8886 100.02208 118.6635 100.21019 124.26172 95.923828 C 126.8811 93.918268 129.16843 92.163631 129.34375 92.025391 C 129.55799 91.856471 130.23998 92.058818 131.42578 92.642578 C 134.73436 94.271388 139.17713 93.935719 142.24609 91.824219 C 145.67219 89.466999 147.61362 85.110884 146.93359 81.302734 C 146.78417 80.465984 146.58709 79.590725 146.49609 79.359375 C 146.29295 78.843135 149.91968 75.94718 151.83789 75.09375 C 152.81123 74.660705 154.02448 74.424308 155.27734 74.388672 z M 157.29883 78.128906 C 155.64017 78.00612 153.92485 78.520268 152.66016 79.710938 C 149.51399 82.672938 150.65301 88.329704 154.69336 89.808594 C 160.39002 91.893744 165.28382 85.205857 161.59766 80.373047 C 160.55946 79.011902 158.95748 78.251693 157.29883 78.128906 z M 156.82812 81.769531 C 157.37034 81.77351 157.93232 81.963895 158.4375 82.398438 C 159.48693 83.301118 159.48693 84.991851 158.4375 85.894531 C 157.65827 86.564801 156.36924 86.720038 155.54883 86.242188 C 155.29417 86.093857 154.89937 85.611825 154.67188 85.171875 C 153.76567 83.419485 155.20149 81.757594 156.82812 81.769531 z M 176.25195 98.652344 L 176.25195 113.96289 C 176.25195 130.99708 176.33751 130.20607 174.45703 130.68164 C 173.91665 130.8183 172.28333 131.0047 170.82812 131.0957 L 168.18164 131.26172 L 167.47266 129.96094 C 166.65628 128.46494 165.00722 127.01782 163.13477 126.1543 C 161.32287 125.31867 157.12864 125.30201 155.34961 126.12305 C 153.48349 126.98428 151.50872 128.93362 150.56836 130.84375 L 149.73828 132.5293 L 148.11328 132.67773 C 147.21884 132.75967 143.98563 133.00648 140.92969 133.22656 C 137.87375 133.44664 131.29495 133.92432 126.30859 134.28711 C 114.75087 135.12802 114.49694 135.12779 113.66602 134.29688 C 113.09229 133.72315 113.01758 133.41784 113.01758 131.66992 C 113.01758 129.87897 113.07013 129.67286 113.58398 129.50977 C 114.45921 129.23198 116.43993 127.28384 117.03711 126.11328 C 117.81261 124.59316 117.95073 122.37007 117.37695 120.64258 C 116.85167 119.06111 115.05592 116.94177 113.80078 116.42188 L 113.01758 116.09766 L 113.01758 110.83789 C 113.01758 107.94513 113.06711 105.57812 113.12891 105.57812 C 113.27139 105.57812 120.22637 104.82654 132.72852 103.46094 C 143.52535 102.28162 146.847 101.92127 163.15625 100.16016 C 169.26812 99.500184 174.71407 98.891441 175.25977 98.806641 L 176.25195 98.652344 z M 167.28711 103.48242 C 165.99048 103.60097 164.6799 104.1708 163.53906 105.30664 C 160.41008 108.42192 161.58759 113.7761 165.73242 115.2793 C 166.87745 115.69459 168.40396 115.70542 169.74023 115.30859 C 171.17219 114.88334 173.12163 112.93197 173.54688 111.5 C 174.93301 106.83234 171.17698 103.12678 167.28711 103.48242 z M 148.31641 106.02344 C 147.41954 105.91705 146.48038 105.94029 145.51562 106.11523 C 138.4934 107.3886 135.12812 114.98308 138.95898 120.91016 C 140.18063 122.80031 141.95396 124.17291 144.10547 124.89258 C 148.4133 126.33352 153.62634 124.16734 155.69727 120.07422 C 158.829 113.88447 154.59447 106.76812 148.31641 106.02344 z M 121.48438 107.16602 C 118.02526 107.16602 115.4189 109.73229 115.4043 113.1543 C 115.39316 115.75826 117.484 118.49333 119.92773 119.07031 C 121.31123 119.39695 121.89487 119.37083 123.24023 118.91406 C 124.8918 118.35334 125.89861 117.57891 126.6543 116.29297 C 127.96762 114.05811 127.73069 111.24349 126.06445 109.29688 C 124.76273 107.77609 123.45203 107.16602 121.48438 107.16602 z M 167.77148 107.16602 C 169.96415 107.16602 171.01515 109.68407 169.46875 111.23047 C 168.49039 112.20879 167.20224 112.17882 166.17773 111.1543 C 165.19178 110.16834 165.16203 109.08115 166.08984 107.97852 C 166.63138 107.33494 166.98391 107.16602 167.77148 107.16602 z M 146.48828 109.85938 C 148.48475 109.73224 149.78707 110.11759 151.02344 111.20312 C 154.36999 114.14145 153.53057 119.61156 149.47266 121.30664 C 148.04484 121.90308 145.66889 121.83543 144.30469 121.16016 C 142.05064 120.04443 140.9516 118.05542 141.11328 115.37891 C 141.30492 112.20622 143.39872 110.05611 146.48828 109.85938 z M 120.81055 110.86328 C 121.29053 110.72707 121.83407 110.74484 122.38867 110.97656 C 123.94561 111.62709 124.37442 113.43585 123.26953 114.69141 C 122.22669 115.87647 120.41435 115.79959 119.52734 114.5332 C 118.49252 113.05579 119.3706 111.27192 120.81055 110.86328 z M 131.97266 119.37891 C 128.59566 118.97111 125.20948 121.47651 125.19336 125.36328 C 125.18312 127.82775 126.44757 129.79824 128.74805 130.89844 C 131.45391 132.19252 134.77212 131.15186 136.41406 128.49609 C 137.08576 127.40964 137.20131 126.95866 137.19531 125.46094 C 137.18745 123.42687 136.55408 121.93641 135.2207 120.81445 C 134.2222 119.97427 133.09832 119.51484 131.97266 119.37891 z M 131.72852 123.06055 C 132.17828 123.17303 132.61225 123.42984 132.96875 123.85352 C 133.89657 124.95615 133.86683 126.04334 132.88086 127.0293 C 131.2935 128.61666 128.91939 127.61149 128.90039 125.34375 C 128.88651 123.68643 130.37921 122.72311 131.72852 123.06055 z "
       d="m 155.08594,69.025391 c -1.9082,0.125483 -4.14638,0.678205 -5.86914,1.478515 -0.41451,0.192562 -1.05697,0.598941 -1.85157,1.132813 -0.79459,0.533871 -1.72253,1.189005 -2.62304,1.847656 -0.90051,0.658651 -1.77233,1.318975 -2.45703,1.867187 -0.34235,0.274107 -0.63781,0.520778 -0.86914,0.726563 -0.23134,0.205785 -0.38866,0.345754 -0.50977,0.521484 -0.3094,0.448932 -0.46858,0.964536 -0.4375,1.53125 0.0311,0.566715 0.22849,1.178219 0.56836,1.935547 1.226,2.731891 0.72764,5.253488 -1.35156,7.033203 -2.17478,1.861529 -4.73627,1.837472 -7.36133,-0.121093 -0.77588,-0.578884 -1.46459,-0.946752 -2.14063,-1.082032 -0.67603,-0.13528 -1.33133,-0.01013 -1.92187,0.337891 -0.0981,0.05784 -0.17594,0.117331 -0.34375,0.240234 -0.16781,0.122904 -0.39561,0.291795 -0.67578,0.501953 -0.56034,0.420318 -1.33271,1.005766 -2.26367,1.714844 -1.86193,1.418157 -4.35479,3.32978 -7.0293,5.392578 -3.16277,2.439388 -5.61978,4.376358 -7.31055,5.761719 -0.84538,0.692677 -1.49763,1.246757 -1.95703,1.662107 -0.2297,0.20768 -0.41034,0.38006 -0.54687,0.52344 -0.13654,0.14338 -0.22737,0.20822 -0.3086,0.42188 -0.0531,0.13975 -0.0618,0.2389 -0.0801,0.39453 -0.0182,0.15562 -0.0326,0.34946 -0.0469,0.58203 -0.0285,0.46514 -0.0524,1.08695 -0.0684,1.84375 -0.0319,1.5136 -0.0367,3.56351 -0.0137,5.93359 l 0.0781,7.91406 a 0.42876633,0.42876633 0 0 0 0.14844,0.32032 l 0.74219,0.63867 c 0.50481,0.434 1.17561,0.74414 1.79492,0.74414 0.45709,0 0.98665,0.25797 1.38867,0.66601 0.40202,0.40805 0.6582,0.94738 0.6582,1.41797 0,0.47059 -0.25618,1.00992 -0.6582,1.41797 -0.40202,0.40805 -0.93158,0.66602 -1.38867,0.66602 -0.61894,0 -1.28948,0.30886 -1.79492,0.74414 l -0.74219,0.64062 a 0.42876633,0.42876633 0 0 0 -0.15039,0.32422 v 3.92383 c 0,1.95166 -0.003,2.93758 0.10937,3.67383 0.11223,0.73625 0.35852,1.18896 0.76758,1.91015 1.04037,1.83423 2.42062,2.99832 4.35938,3.66797 0.82843,0.28615 1.19411,0.45072 1.86133,0.48047 0.66721,0.0298 1.5845,-0.0588 3.68164,-0.2168 1.88778,-0.1422 10.1069,-0.73469 18.25586,-1.3164 4.07526,-0.29091 7.87467,-0.57253 10.71484,-0.79102 1.42008,-0.10924 2.5997,-0.20196 3.45508,-0.27343 0.42769,-0.0357 0.77348,-0.0659 1.02929,-0.0899 0.25581,-0.024 0.39939,-0.0378 0.50782,-0.0566 0.57682,-0.10036 1.10585,-0.44966 1.52734,-0.875 0.42149,-0.42534 0.75745,-0.92295 0.75977,-1.49414 0.003,-0.81666 0.59157,-2.30809 1.24023,-3.04687 2.11567,-2.40962 5.96572,-1.86252 7.23438,1.01367 0.38139,0.86466 0.64842,1.51366 0.95898,2.02929 0.31056,0.51564 0.69945,0.90827 1.24023,1.11524 1.08157,0.41393 2.5698,0.2146 5.70313,-0.0293 2.24081,-0.17442 3.50022,-0.28518 4.38672,-0.44336 0.8865,-0.15817 1.40992,-0.38006 2.04297,-0.72461 1.53805,-0.83711 2.49846,-1.83735 3.41406,-3.54883 a 0.42876633,0.42876633 0 0 0 0,-0.002 l 0.58203,-1.08984 a 0.42876633,0.42876633 0 0 0 0.0508,-0.20117 V 111.92773 93.539062 a 0.42876633,0.42876633 0 0 0 -0.0137,-0.105468 l -0.63281,-2.513672 c -0.82497,-3.278479 -2.05022,-6.173102 -3.66992,-8.644531 -1.66388,-2.538845 -5.78878,-6.661575 -8.32422,-8.320313 -4.02879,-2.635707 -8.6207,-4.51586 -12.08203,-4.90625 -0.531,-0.05989 -1.13152,-0.06526 -1.76758,-0.02344 z m 0.20312,5.791015 c 1.20701,-0.03433 2.45652,0.125957 3.53321,0.480469 7.92991,2.611037 13.97255,8.482622 16.19531,15.685547 0.26274,0.85141 0.52962,1.463159 0.5625,1.765625 0.0164,0.151233 0.003,0.189811 -0.0449,0.251953 -0.0482,0.06214 -0.18183,0.167512 -0.47461,0.273437 -1.17115,0.423701 -4.50458,0.729824 -11.75391,1.525391 -6.94876,0.762576 -19.59831,2.154272 -28.11133,3.091797 -4.25617,0.468726 -8.16868,0.894138 -11.04297,1.203125 -1.43714,0.154494 -2.61436,0.280659 -3.44531,0.367187 -0.15569,0.01621 -0.23448,0.02368 -0.36523,0.03711 0.66168,-0.535082 1.69517,-1.332065 4.17968,-3.234375 2.61957,-2.005699 4.87395,-3.733652 5.08789,-3.902344 -0.066,0.05201 -0.0895,0.03299 -0.0332,0.03516 0.0563,0.0022 0.17069,0.02146 0.32227,0.06641 0.30316,0.08989 0.7566,0.278288 1.33789,0.564453 3.46596,1.70629 8.04129,1.359381 11.25195,-0.84961 3.56699,-2.454154 5.58199,-6.948314 4.86719,-10.951172 -0.0759,-0.425019 -0.16317,-0.857136 -0.24414,-1.216796 -0.068,-0.302127 -0.12211,-0.499568 -0.18164,-0.677735 0.006,-0.01292 0.005,-0.01365 0.0195,-0.03711 0.0577,-0.09001 0.17632,-0.237189 0.33594,-0.404297 0.31924,-0.334216 0.80329,-0.763764 1.35351,-1.203125 1.10044,-0.878722 2.48681,-1.806876 3.37305,-2.201172 0.90539,-0.402815 2.07048,-0.635594 3.27734,-0.669922 z m 2.04102,2.884766 c -1.76824,-0.130898 -3.60218,0.416195 -4.96289,1.697265 -3.38213,3.184142 -2.16762,9.221255 2.17968,10.8125 3.02448,1.107052 5.88965,-0.123423 7.4629,-2.273437 1.57324,-2.150014 1.88608,-5.259247 -0.0703,-7.824219 -1.12049,-1.469033 -2.84106,-2.281204 -4.60937,-2.412109 z m -0.50586,4.498047 c 0.44404,0.0033 0.90104,0.151029 1.33398,0.523437 0.84879,0.730093 0.84879,2.117564 0,2.847656 -0.62683,0.539182 -1.77778,0.660009 -2.39453,0.300782 -0.0361,-0.02101 -0.19164,-0.154806 -0.33203,-0.326172 -0.14039,-0.171367 -0.28229,-0.383474 -0.37891,-0.570313 -0.38526,-0.745014 -0.26914,-1.400836 0.0977,-1.917968 0.3668,-0.517133 1.00743,-0.862313 1.67383,-0.857422 z m 18.99805,16.953125 v 14.810546 c 0,8.51781 0.0173,12.59699 -0.18946,14.52344 -0.10337,0.96322 -0.27057,1.33959 -0.40625,1.47656 -0.13567,0.13697 -0.37824,0.17711 -0.875,0.30273 -0.43114,0.10904 -2.11202,0.31238 -3.55078,0.40235 l -2.37305,0.14844 -0.57812,-1.06055 c -0.87698,-1.60705 -2.58422,-3.09052 -4.53516,-3.99023 -1.0192,-0.47005 -2.54508,-0.67159 -4.08203,-0.67774 -1.53694,-0.006 -3.05559,0.18179 -4.0625,0.64649 -1.98512,0.91614 -3.99197,2.9001 -4.98633,4.91992 l -0.72461,1.4707 -1.38476,0.125 c -0.87886,0.0805 -4.12114,0.32884 -7.17578,0.54883 -3.0563,0.2201 -9.63468,0.69775 -14.6211,1.06054 -5.77863,0.42044 -8.73731,0.6297 -10.3125,0.63086 -0.78759,5.9e-4 -1.22251,-0.0559 -1.46679,-0.13476 -0.24428,-0.0789 -0.32928,-0.16132 -0.5293,-0.36133 -0.26656,-0.26656 -0.35438,-0.38431 -0.42578,-0.67383 -0.0714,-0.28951 -0.0957,-0.78254 -0.0957,-1.65039 0,-0.89128 0.0257,-1.38902 0.0762,-1.58203 0.0252,-0.0965 0.0365,-0.10153 0.043,-0.10742 0.006,-0.006 0.0408,-0.029 0.14648,-0.0625 0.62417,-0.19811 1.30049,-0.77686 2.00195,-1.4668 0.70146,-0.68994 1.36305,-1.47214 1.70508,-2.14258 0.84303,-1.65248 0.97823,-3.94934 0.36328,-5.80078 -0.29065,-0.87506 -0.89462,-1.82526 -1.59375,-2.65039 -0.69913,-0.82512 -1.47353,-1.52093 -2.22461,-1.83203 l -0.51757,-0.21484 v -4.97266 c 0,-1.44393 0.0112,-2.75633 0.0312,-3.70508 0.01,-0.47437 0.0222,-0.85981 0.0352,-1.11914 9.8e-4,-0.0196 9.6e-4,-0.0248 0.002,-0.043 0.0111,-0.001 0.0157,-7.6e-4 0.0273,-0.002 0.22933,-0.0233 0.56209,-0.0576 0.99609,-0.10352 0.86802,-0.0919 2.14096,-0.22888 3.80078,-0.4082 3.31965,-0.35863 8.18438,-0.8875 14.43555,-1.57031 10.79677,-1.17931 14.11851,-1.53968 30.42773,-3.30078 3.05642,-0.33004 5.94619,-0.647214 8.14063,-0.892581 2.19444,-0.245367 3.64955,-0.411163 3.98242,-0.46289 z m -8.57422,3.902346 c -1.3946,0.1275 -2.80535,0.74618 -4.01172,1.94726 -3.34115,3.32652 -2.0775,9.07412 2.34961,10.67969 1.2576,0.45612 2.85166,0.45991 4.27539,0.0371 0.83664,-0.24846 1.70805,-0.87942 2.46289,-1.63477 0.75483,-0.75534 1.38442,-1.62646 1.63281,-2.46289 1.46393,-4.92963 -2.5253,-8.94891 -6.70898,-8.5664 z m -20.32032,2.48047 c -0.4888,0.015 -0.98515,0.067 -1.48828,0.1582 -7.29302,1.32248 -10.82346,9.28579 -6.83984,15.44922 1.27296,1.96953 3.12932,3.40704 5.36914,4.15625 4.52909,1.51495 9.93706,-0.73389 12.11133,-5.03125 3.26177,-6.44678 -1.13996,-13.89027 -7.71289,-14.66992 -0.46945,-0.0557 -0.95065,-0.0775 -1.43946,-0.0625 z m -25.44335,1.20117 c -3.67117,0 -6.49425,2.77723 -6.50977,6.41601 -0.0121,2.83474 2.17007,5.7019 4.85547,6.33594 1.41472,0.33401 2.17244,0.29934 3.54883,-0.16797 1.71513,-0.5823 2.84266,-1.44602 3.64453,-2.81054 1.40439,-2.38984 1.15313,-5.40574 -0.63281,-7.49219 -1.35734,-1.58577 -2.84999,-2.28125 -4.90625,-2.28125 z m 46.2871,0.85937 c 0.93222,0 1.5744,0.5143 1.85547,1.1875 0.28107,0.67321 0.19565,1.48795 -0.46093,2.14453 -0.42111,0.42109 -0.86886,0.59827 -1.31641,0.5879 -0.44755,-0.0104 -0.91894,-0.21386 -1.36914,-0.66407 -0.43879,-0.43879 -0.62556,-0.84941 -0.63672,-1.2539 -0.0112,-0.4045 0.15646,-0.84728 0.57422,-1.34375 0.25316,-0.30087 0.4314,-0.45219 0.60742,-0.53711 0.17602,-0.0849 0.38296,-0.1211 0.74609,-0.1211 z m -19.94531,2.68946 c 1.18734,0.0918 2.04256,0.47505 2.91406,1.24023 3.12161,2.74082 2.34103,7.80802 -1.43359,9.38477 -1.26109,0.52679 -3.61547,0.45775 -4.8125,-0.13477 -2.12215,-1.05044 -3.10698,-2.82407 -2.95312,-5.37109 0.18101,-2.99673 2.07049,-4.93227 4.9746,-5.11719 0.48246,-0.0307 0.91477,-0.0326 1.31055,-0.002 z m -26.28125,0.92382 c 0.21662,0.0134 0.44281,0.0659 0.67774,0.16407 0.66097,0.27617 1.05549,0.7753 1.1875,1.33203 0.132,0.55673 0.004,1.17264 -0.46289,1.70312 -0.87403,0.99323 -2.3341,0.92722 -3.06836,-0.12109 -0.87641,-1.25125 -0.11992,-2.68004 1.04882,-3.01172 0.1944,-0.0552 0.40057,-0.0798 0.61719,-0.0664 z m 9.12891,7.72461 c -3.11789,0.28256 -5.89515,2.80961 -5.91016,6.42774 -0.0109,2.61206 1.37377,4.76404 3.79883,5.92383 2.90964,1.39153 6.46534,0.26845 8.2168,-2.56446 0.68804,-1.11288 0.85179,-1.7416 0.8457,-3.26172 -0.008,-2.12225 -0.70358,-3.77332 -2.12891,-4.97265 -1.06085,-0.89265 -2.26656,-1.38756 -3.47265,-1.5332 -0.4523,-0.0546 -0.9042,-0.0599 -1.34961,-0.0195 z m 0.13086,4.52149 c 0.26724,-0.0527 0.54761,-0.0467 0.82031,0.0215 0.36373,0.091 0.71453,0.29451 1.01562,0.65235 0.41777,0.49647 0.58539,0.93926 0.57422,1.34375 -0.0112,0.40449 -0.19792,0.81511 -0.63672,1.2539 -0.68611,0.68612 -1.47377,0.78086 -2.10937,0.51172 -0.6356,-0.26913 -1.13237,-0.91363 -1.14063,-1.89844 -0.009,-1.04889 0.67484,-1.72674 1.47657,-1.88476 z" /></g></svg>
